GRF
version=1
nRows=12
nColumns=19
inDegrees=no
endheader
time	1_ground_force_vx	1_ground_force_vy	1_ground_force_vz	1_ground_force_px	1_ground_force_py	1_ground_force_pz	1_ground_torque_x	1_ground_torque_y	1_ground_torque_z	2_ground_force_vx	2_ground_force_vy	2_ground_force_vz	2_ground_force_px	2_ground_force_py	2_ground_force_pz	2_ground_torque_x	2_ground_torque_y	2_ground_torque_z
      1.87500000	      0.00000000	      0.00000000	      0.00000000	      0.00000000	      0.00000000	      0.00000000	      0.00000000	      0.00000000	      0.00000000	    -22.47209988	    674.27166783	    -73.69263516	      0.22931250	      0.00000000	      0.30970164	      0.00000000	     -1.61217213	      0.00000000
      1.87600000	      0.00000000	      0.00000000	      0.00000000	      0.00000000	      0.00000000	      0.00000000	      0.00000000	      0.00000000	      0.00000000	    -22.77450055	    669.37298241	    -73.05951456	      0.22935417	      0.00000000	      0.31065025	     -0.00000000	     -1.58829385	      0.00000000
      1.87700000	      0.00000000	      0.00000000	      0.00000000	      0.00000000	      0.00000000	      0.00000000	      0.00000000	      0.00000000	      0.00000000	    -22.86397189	    664.69582422	    -72.61204342	      0.22938045	      0.00000000	      0.31159910	     -0.00000000	     -1.59162274	      0.00000000
      1.87800000	      0.00000000	      0.00000000	      0.00000000	      0.00000000	      0.00000000	      0.00000000	      0.00000000	      0.00000000	      0.00000000	    -22.83710923	    660.15768283	    -72.21529142	      0.22938700	      0.00000000	      0.31253435	     -0.00000000	     -1.61593890	      0.00000000
      1.87900000	      0.00000000	      0.00000000	      0.00000000	      0.00000000	      0.00000000	      0.00000000	      0.00000000	      0.00000000	      0.00000000	    -22.73804514	    655.74975760	    -71.57675485	      0.22938155	      0.00000000	      0.31346588	     -0.00000000	     -1.63529578	      0.00000000
      1.88000000	      0.00000000	      0.00000000	      0.00000000	      0.00000000	      0.00000000	      0.00000000	      0.00000000	      0.00000000	      0.00000000	    -22.70887611	    651.36145949	    -70.69706692	      0.22939671	      0.00000000	      0.31439800	     -0.00000000	     -1.62989384	      0.00000000
      1.88100000	      0.00000000	      0.00000000	      0.00000000	      0.00000000	      0.00000000	      0.00000000	      0.00000000	      0.00000000	      0.00000000	    -22.87026138	    646.77049043	    -69.66539287	      0.22944015	      0.00000000	      0.31540408	     -0.00000000	     -1.58720735	      0.00000000
      1.88200000	      0.00000000	      0.00000000	      0.00000000	      0.00000000	      0.00000000	      0.00000000	      0.00000000	      0.00000000	      0.00000000	    -23.09569015	    641.90525038	    -68.71770719	      0.22955481	      0.00000000	      0.31645910	     -0.00000000	     -1.54211397	      0.00000000
      1.88300000	      0.00000000	      0.00000000	      0.00000000	      0.00000000	      0.00000000	      0.00000000	      0.00000000	      0.00000000	      0.00000000	    -23.37694059	    636.81791763	    -68.04662210	      0.22963299	      0.00000000	      0.31753539	     -0.00000000	     -1.49387684	      0.00000000
      1.88400000	      0.00000000	      0.00000000	      0.00000000	      0.00000000	      0.00000000	      0.00000000	      0.00000000	      0.00000000	      0.00000000	    -23.63798127	    631.68077327	    -67.50669724	      0.22969362	      0.00000000	      0.31861153	     -0.00000000	     -1.47024495	      0.00000000
      1.88500000	      0.00000000	      0.00000000	      0.00000000	      0.00000000	      0.00000000	      0.00000000	      0.00000000	      0.00000000	      0.00000000	    -23.70999262	    626.78881503	    -67.08065062	      0.22972968	      0.00000000	      0.31960679	     -0.00000000	     -1.45662566	     -0.00000000
      1.88600000	      0.00000000	      0.00000000	      0.00000000	      0.00000000	      0.00000000	      0.00000000	      0.00000000	      0.00000000	      0.00000000	    -23.67015037	    622.11431532	    -66.67332678	      0.22974666	      0.00000000	      0.32052669	     -0.00000000	     -1.45877675	     -0.00000000
